HIERARCHY
ROOT Hips
{
  OFFSET 5.72205e-005 65.662 3.42586
  CHANNELS 6 Xposition Yposition Zposition Zrotation Xrotation Yrotation
  JOINT Chest
  {
    OFFSET 0 8.7983 -4.7612
    CHANNELS 6 Xposition Yposition Zposition Zrotation Xrotation Yrotation
    JOINT Chest2
    {
      OFFSET 0 8.0291 0.4195
      CHANNELS 6 Xposition Yposition Zposition Zrotation Xrotation Yrotation
      JOINT Chest3
      {
        OFFSET 0 9.9351 -2.2114
        CHANNELS 6 Xposition Yposition Zposition Zrotation Xrotation Yrotation
        JOINT Neck
        {
          OFFSET 0 22.3885 -0.4656
          CHANNELS 6 Xposition Yposition Zposition Zrotation Xrotation Yrotation
          JOINT Head
          {
            OFFSET -0.0001 12.643 3.4389
            CHANNELS 6 Xposition Yposition Zposition Zrotation Xrotation Yrotation
            End Site
            {
              OFFSET 0.0001 17.6655 0.5274
            }
          }
        }
        JOINT LeftCollar
        {
          OFFSET 2.2603 21.606 7.4023
          CHANNELS 6 Xposition Yposition Zposition Zrotation Xrotation Yrotation
          JOINT LeftShoulder
          {
            OFFSET 13.5163 -1.1332 -5.0146
            CHANNELS 6 Xposition Yposition Zposition Zrotation Xrotation Yrotation
            JOINT LeftElbow
            {
              OFFSET -0.0995 -28.05 -0.2431
              CHANNELS 6 Xposition Yposition Zposition Zrotation Xrotation Yrotation
              JOINT LeftWrist
              {
                OFFSET 0.0679 -23.3996 -0.1402
                CHANNELS 6 Xposition Yposition Zposition Zrotation Xrotation Yrotation
                JOINT LeftFinger1
                {
                  OFFSET 0.7932 -9.069 2.5189
                  CHANNELS 6 Xposition Yposition Zposition Zrotation Xrotation Yrotation
                  JOINT LeftFinger11
                  {
                    OFFSET -0.8272 -3.3923 0.5977
                    CHANNELS 6 Xposition Yposition Zposition Zrotation Xrotation Yrotation
                    JOINT LeftFinger12
                    {
                      OFFSET -0.5649 -2.3158 0.4082
                      CHANNELS 6 Xposition Yposition Zposition Zrotation Xrotation Yrotation
                      End Site
                      {
                        OFFSET -0.4919 -1.6479 0.2673
                      }
                    }
                  }
                }
                JOINT LeftFinger2
                {
                  OFFSET 0.9159 -9.2044 0.2193
                  CHANNELS 6 Xposition Yposition Zposition Zrotation Xrotation Yrotation
                  JOINT LeftFinger21
                  {
                    OFFSET 0.0117 -4.1944 -0.0248
                    CHANNELS 6 Xposition Yposition Zposition Zrotation Xrotation Yrotation
                    JOINT LeftFinger22
                    {
                      OFFSET 0.0071 -2.3249 -0.0142
                      CHANNELS 6 Xposition Yposition Zposition Zrotation Xrotation Yrotation
                      End Site
                      {
                        OFFSET -0.1475 -2.0882 0.0028
                      }
                    }
                  }
                }
                JOINT LeftFinger3
                {
                  OFFSET 0.6113 -8.7231 -2.0637
                  CHANNELS 6 Xposition Yposition Zposition Zrotation Xrotation Yrotation
                  JOINT LeftFinger31
                  {
                    OFFSET -0.1927 -3.8059 -0.2383
                    CHANNELS 6 Xposition Yposition Zposition Zrotation Xrotation Yrotation
                    JOINT LeftFinger32
                    {
                      OFFSET -0.1091 -2.1688 -0.1362
                      CHANNELS 6 Xposition Yposition Zposition Zrotation Xrotation Yrotation
                      End Site
                      {
                        OFFSET -0.2358 -1.9176 -0.0906
                      }
                    }
                  }
                }
                JOINT LeftFinger4
                {
                  OFFSET -0.6151 -8.0947 -3.5641
                  CHANNELS 6 Xposition Yposition Zposition Zrotation Xrotation Yrotation
                  JOINT LeftFinger41
                  {
                    OFFSET -0.4882 -2.341 -0.6462
                    CHANNELS 6 Xposition Yposition Zposition Zrotation Xrotation Yrotation
                    JOINT LeftFinger42
                    {
                      OFFSET -0.3575 -1.7167 -0.4742
                      CHANNELS 6 Xposition Yposition Zposition Zrotation Xrotation Yrotation
                      End Site
                      {
                        OFFSET -0.4187 -1.5237 -0.3496
                      }
                    }
                  }
                }
                JOINT LeftFinger0
                {
                  OFFSET -1.42 -1.8761 1.4223
                  CHANNELS 6 Xposition Yposition Zposition Zrotation Xrotation Yrotation
                  JOINT LeftFinger01
                  {
                    OFFSET -1.1471 -3.4929 2.6334
                    CHANNELS 6 Xposition Yposition Zposition Zrotation Xrotation Yrotation
                    JOINT LeftFinger02
                    {
                      OFFSET -0.823 -2.3 1.6571
                      CHANNELS 6 Xposition Yposition Zposition Zrotation Xrotation Yrotation
                      End Site
                      {
                        OFFSET -0.5822 -1.6914 1.1582
                      }
                    }
                  }
                }
              }
            }
          }
        }
        JOINT RightCollar
        {
          OFFSET -2.2603 21.606 7.4023
          CHANNELS 6 Xposition Yposition Zposition Zrotation Xrotation Yrotation
          JOINT RightShoulder
          {
            OFFSET -13.5187 -1.1334 -5.0155
            CHANNELS 6 Xposition Yposition Zposition Zrotation Xrotation Yrotation
            JOINT RightElbow
            {
              OFFSET 0.0994 -28.0499 -0.2431
              CHANNELS 6 Xposition Yposition Zposition Zrotation Xrotation Yrotation
              JOINT RightWrist
              {
                OFFSET -0.0679 -23.3996 -0.1402
                CHANNELS 6 Xposition Yposition Zposition Zrotation Xrotation Yrotation
                JOINT RightFinger1
                {
                  OFFSET -0.7932 -9.0691 2.5189
                  CHANNELS 6 Xposition Yposition Zposition Zrotation Xrotation Yrotation
                  JOINT RightFinger11
                  {
                    OFFSET 0.8272 -3.3923 0.5977
                    CHANNELS 6 Xposition Yposition Zposition Zrotation Xrotation Yrotation
                    JOINT RightFinger12
                    {
                      OFFSET 0.565 -2.3158 0.4082
                      CHANNELS 6 Xposition Yposition Zposition Zrotation Xrotation Yrotation
                      End Site
                      {
                        OFFSET 0.4919 -1.6479 0.2673
                      }
                    }
                  }
                }
                JOINT RightFinger2
                {
                  OFFSET -0.916 -9.2044 0.2193
                  CHANNELS 6 Xposition Yposition Zposition Zrotation Xrotation Yrotation
                  JOINT RightFinger21
                  {
                    OFFSET -0.0117 -4.1944 -0.0248
                    CHANNELS 6 Xposition Yposition Zposition Zrotation Xrotation Yrotation
                    JOINT RightFinger22
                    {
                      OFFSET -0.0071 -2.3249 -0.0142
                      CHANNELS 6 Xposition Yposition Zposition Zrotation Xrotation Yrotation
                      End Site
                      {
                        OFFSET 0.1475 -2.0882 0.0028
                      }
                    }
                  }
                }
                JOINT RightFinger3
                {
                  OFFSET -0.6113 -8.7231 -2.0637
                  CHANNELS 6 Xposition Yposition Zposition Zrotation Xrotation Yrotation
                  JOINT RightFinger31
                  {
                    OFFSET 0.1927 -3.8059 -0.2383
                    CHANNELS 6 Xposition Yposition Zposition Zrotation Xrotation Yrotation
                    JOINT RightFinger32
                    {
                      OFFSET 0.1091 -2.1688 -0.1362
                      CHANNELS 6 Xposition Yposition Zposition Zrotation Xrotation Yrotation
                      End Site
                      {
                        OFFSET 0.2358 -1.9176 -0.0906
                      }
                    }
                  }
                }
                JOINT RightFinger4
                {
                  OFFSET 0.6151 -8.0947 -3.564
                  CHANNELS 6 Xposition Yposition Zposition Zrotation Xrotation Yrotation
                  JOINT RightFinger41
                  {
                    OFFSET 0.4882 -2.341 -0.6462
                    CHANNELS 6 Xposition Yposition Zposition Zrotation Xrotation Yrotation
                    JOINT RightFinger42
                    {
                      OFFSET 0.3574 -1.7166 -0.4742
                      CHANNELS 6 Xposition Yposition Zposition Zrotation Xrotation Yrotation
                      End Site
                      {
                        OFFSET 0.4187 -1.5237 -0.3496
                      }
                    }
                  }
                }
                JOINT RightFinger0
                {
                  OFFSET 1.4199 -1.8761 1.4221
                  CHANNELS 6 Xposition Yposition Zposition Zrotation Xrotation Yrotation
                  JOINT RightFinger01
                  {
                    OFFSET 1.1472 -3.4929 2.6336
                    CHANNELS 6 Xposition Yposition Zposition Zrotation Xrotation Yrotation
                    JOINT RightFinger02
                    {
                      OFFSET 0.8229 -2.3 1.6571
                      CHANNELS 6 Xposition Yposition Zposition Zrotation Xrotation Yrotation
                      End Site
                      {
                        OFFSET 0.5822 -1.6914 1.1582
                      }
                    }
                  }
                }
              }
            }
          }
        }
      }
    }
  }
  JOINT RightHip
  {
    OFFSET -9.412 3.9771 -0.7758
    CHANNELS 6 Xposition Yposition Zposition Zrotation Xrotation Yrotation
    JOINT RightKnee
    {
      OFFSET -0.7531 -40.938 0
      CHANNELS 6 Xposition Yposition Zposition Zrotation Xrotation Yrotation
      JOINT RightAnkle
      {
        OFFSET 0 -40.1986 0
        CHANNELS 6 Xposition Yposition Zposition Zrotation Xrotation Yrotation
        JOINT RightToe
        {
          OFFSET 0 -4.4182 9.239
          CHANNELS 6 Xposition Yposition Zposition Zrotation Xrotation Yrotation
          End Site
          {
            OFFSET 0 0 6.1981
          }
        }
      }
    }
  }
  JOINT LeftHip
  {
    OFFSET 9.4119 3.9773 -0.7758
    CHANNELS 6 Xposition Yposition Zposition Zrotation Xrotation Yrotation
    JOINT LeftKnee
    {
      OFFSET 0.7532 -40.9383 0
      CHANNELS 6 Xposition Yposition Zposition Zrotation Xrotation Yrotation
      JOINT LeftAnkle
      {
        OFFSET 0 -40.1986 0
        CHANNELS 6 Xposition Yposition Zposition Zrotation Xrotation Yrotation
        JOINT LeftToe
        {
          OFFSET 0 -4.4182 9.239
          CHANNELS 6 Xposition Yposition Zposition Zrotation Xrotation Yrotation
          End Site
          {
            OFFSET 0 0 6.1981
          }
        }
      }
    }
  }
}
MOTION
Frames:	4
Frame Time:	0.0333333
5.72205e-005 65.662 3.42586 0 0 -0 0 8.7983 -4.7612 0 0 -0 0 8.0291 0.4195 0 0 -0 0 9.9351 -2.2114 0 0 -0 0 22.3885 -0.4656 0 0 -0 -0.0001 12.643 3.4389 0 0 -0 2.2603 21.606 7.4023 0 0 -12.5014 13.5163 -1.1332 -5.0146 88.1196 14.2451 10.6914 -0.0995 -28.05 -0.2431 -0.00160068 -0.00239207 0.000740045 0.0679 -23.3996 -0.1402 -8.4365e-005 7.00714e-005 -9.52055e-007 0.7932 -9.069 2.5189 9.93923e-017 -1.98785e-016 -1.59028e-015 -0.8272 -3.3923 0.5977 9.93923e-017 -5.96354e-016 -1.59028e-015 -0.5649 -2.3158 0.4082 -9.93923e-017 -5.96354e-016 -1.59028e-015 0.9159 -9.2044 0.2193 9.93923e-017 -1.98785e-016 -1.59028e-015 0.0117 -4.1944 -0.0248 -0.0128176 0.00232552 8.52707e-005 0.0071 -2.3249 -0.0142 9.93923e-017 5.96354e-016 -0 0.6113 -8.7231 -2.0637 9.93923e-017 -1.98785e-016 -1.59028e-015 -0.1927 -3.8059 -0.2383 -0.0160551 0.00299681 0.000857156 -0.1091 -2.1688 -0.1362 -2.48481e-016 0 3.18055e-015 -0.6151 -8.0947 -3.5641 9.93923e-017 -1.98785e-016 -1.59028e-015 -0.4882 -2.341 -0.6462 -0.0125865 0.0031206 0.00282719 -0.3575 -1.7167 -0.4742 0 1.98785e-016 -0 -1.42 -1.8761 1.4223 9.93923e-017 -1.98785e-016 -1.59028e-015 -1.1471 -3.4929 2.6334 9.93923e-017 -5.96354e-016 -1.59028e-015 -0.823 -2.3 1.6571 -9.93923e-017 -5.96354e-016 -1.59028e-015 -2.2603 21.606 7.4023 -0.865644 0.16582 7.03859 -13.5187 -1.1334 -5.0155 -88.0329 10.2057 -10.5567 0.0994 -28.0499 -0.2431 0.0015593 -0.00248883 -0.000788628 -0.0679 -23.3996 -0.1402 7.87605e-005 4.10553e-005 1.24965e-005 -0.7932 -9.0691 2.5189 -3.97569e-016 -7.95139e-016 3.18055e-015 0.8272 -3.3923 0.5977 -1.98785e-016 -3.97569e-016 3.18055e-015 0.565 -2.3158 0.4082 -1.98785e-016 0 3.18055e-015 -0.916 -9.2044 0.2193 -3.97569e-016 -7.95139e-016 3.18055e-015 -0.0117 -4.1944 -0.0248 0.0129473 0.00231697 -8.70038e-005 -0.0071 -2.3249 -0.0142 9.93923e-017 -7.95139e-016 1.59028e-015 -0.6113 -8.7231 -2.0637 -3.97569e-016 -7.95139e-016 3.18055e-015 0.1927 -3.8059 -0.2383 0.0163314 0.00303369 -0.000872333 0.1091 -2.1688 -0.1362 3.97569e-016 7.95139e-016 -3.18055e-015 0.6151 -8.0947 -3.564 -3.97569e-016 -7.95139e-016 3.18055e-015 0.4882 -2.341 -0.6462 0.0145763 0.00367772 -0.00326275 0.3574 -1.7166 -0.4742 9.93923e-017 -3.97569e-016 -0 1.4199 -1.8761 1.4221 -3.97569e-016 -7.95139e-016 3.18055e-015 1.1472 -3.4929 2.6336 -1.98785e-016 -3.97569e-016 3.18055e-015 0.8229 -2.3 1.6571 -1.98785e-016 0 3.18055e-015 -9.412 3.9771 -0.7758 3.42482 1.32465 -0.0626183 -0.7531 -40.938 0 0.000117508 0.717283 0.000978199 0 -40.1986 0 -3.4257 -2.04197 -0.0604716 8.88178e-016 -4.4182 9.239 6.47761e-025 0 -0 9.4119 3.9773 -0.7758 -3.42483 1.34017 0.0627307 0.7532 -40.9383 -2.22045e-016 -0.000193936 0.682302 -0.0013703 -8.88179e-016 -40.1986 0 3.42574 -2.02253 0.0595886 -8.88178e-016 -4.4182 9.239 -8.45714e-024 0 -7.40531e-025 
38.2674 42.8826 18.6236 -179.999 58.9984 12.9916 1.42109e-014 8.7983 -4.7612 -0.311062 6.23914 -2.86024 7.10543e-015 8.0291 0.4195 -0.309132 12.486 -5.73773 -7.10543e-015 9.9351 -2.2114 -0.309126 12.4861 -5.73775 0 22.3885 -0.4656 -2.54583e-006 13.997 1.42686e-005 -0.0001 12.643 3.4389 0.000819732 -0.159115 0.589274 2.2603 21.606 7.4023 -8.94838 5.88097 -4.79867 13.5163 -1.1332 -5.0146 39.2574 12.0908 -35.0603 -0.0995 -28.05 -0.2431 -1.46486 -17.8277 -36.4584 0.0679 -23.3996 -0.1402 2.12028 3.46034 0.081797 0.7932 -9.069 2.5189 -7.95139e-016 -3.18055e-015 2.5842e-015 -0.8272 -3.3923 0.5977 -1.72393e-006 3.16376e-006 -1.08956e-006 -0.5649 -2.3158 0.4082 -1.59028e-015 0 2.18663e-015 0.9159 -9.2044 0.2193 -7.95139e-016 -3.18055e-015 2.5842e-015 0.0117 -4.1944 -0.0248 -0.0128159 0.00232765 9.01627e-005 0.0071 -2.3249 -0.0142 -7.95139e-016 6.36111e-015 -2.5842e-015 0.6113 -8.7231 -2.0637 -7.95139e-016 -3.18055e-015 2.5842e-015 -0.1927 -3.8059 -0.2383 -0.0160512 0.0029939 0.000860728 -0.1091 -2.1688 -0.1362 7.95139e-016 3.18055e-015 4.57205e-015 -0.6151 -8.0947 -3.5641 -7.95139e-016 -3.18055e-015 2.5842e-015 -0.4882 -2.341 -0.6462 -0.0126119 0.00312607 0.00282611 -0.3575 -1.7167 -0.4742 -7.95139e-016 3.18055e-015 1.39149e-015 -1.42 -1.8761 1.4223 -7.95139e-016 -3.18055e-015 2.5842e-015 -1.1471 -3.4929 2.6334 -1.72393e-006 3.16376e-006 -1.08956e-006 -0.823 -2.3 1.6571 -1.59028e-015 0 2.18663e-015 -2.2603 21.606 7.4023 18.4904 -0.411534 8.23403 -13.5187 -1.1334 -5.0155 -54.0067 10.2106 40.7493 0.0994 -28.0499 -0.2431 -145.771 -28.4814 -171.24 -0.0679 -23.3996 -0.1402 46.6172 8.91883 -10.6236 -0.7932 -9.0691 2.5189 1.46603e-022 2.64096e-006 -3.18055e-015 0.8272 -3.3923 0.5977 7.95139e-016 -2.64096e-006 -0 0.565 -2.3158 0.4082 2.38542e-015 2.64096e-006 -6.36111e-015 -0.916 -9.2044 0.2193 1.46603e-022 2.64096e-006 -3.18055e-015 -0.0117 -4.1944 -0.0248 0.0130195 0.00233079 -8.98495e-005 -0.0071 -2.3249 -0.0142 3.03978e-007 8.56171e-007 1.61959e-006 -0.6113 -8.7231 -2.0637 1.46603e-022 2.64096e-006 -3.18055e-015 0.1927 -3.8059 -0.2383 0.0163567 0.00303561 -0.000875223 0.1091 -2.1688 -0.1362 3.97569e-016 1.61141e-006 1.59028e-015 0.6151 -8.0947 -3.564 1.46603e-022 2.64096e-006 -3.18055e-015 0.4882 -2.341 -0.6462 0.0146389 0.00369326 -0.00327301 0.3574 -1.7166 -0.4742 -1.22685e-006 1.35447e-006 -5.84353e-007 1.4199 -1.8761 1.4221 1.46603e-022 2.64096e-006 -3.18055e-015 1.1472 -3.4929 2.6336 7.95139e-016 -2.64096e-006 -0 0.8229 -2.3 1.6571 2.38542e-015 2.64096e-006 -6.36111e-015 -9.412 3.9771 -0.7758 45.4155 -71.8267 27.5039 -0.7531 -40.938 0 -2.05742 36.855 42.3258 -1.42109e-014 -40.1986 3.55272e-015 -26.4201 -2.43356 -8.40622 0 -4.4182 9.239 2.5275e-006 -1.08913e-006 -8.95112e-008 9.4119 3.9773 -0.7758 37.8085 -77.6125 68.355 0.7532 -40.9383 0 2.04717 37.7926 -42.3211 1.77636e-015 -40.1986 0 24.8654 -2.91797 7.61311 0 -4.4182 9.23901 3.21509e-006 6.53944e-007 -6.33144e-007 
38.2653 42.8814 18.6432 -179.999 58.9984 12.9916 0 8.7983 -4.7612 -0.281725 6.42585 -2.8629 0 8.0291 0.4195 -0.239992 12.8578 -5.74864 0 9.9351 -2.2114 -0.239991 12.8578 -5.74865 0 22.3885 -0.4656 -0.407771 13.9966 0.0986374 -0.0001 12.643 3.4389 -0.0581179 -0.305473 1.16397 2.2603 21.606 7.4023 -8.37939 5.39283 -5.51214 13.5163 -1.1332 -5.0146 38.9585 12.0726 -35.0196 -0.0995 -28.05 -0.2431 -1.46543 -17.8275 -36.4583 0.0679 -23.3996 -0.1402 2.27105 3.48109 0.751599 0.7932 -9.069 2.5189 7.95139e-016 -2.22639e-014 -4.77083e-015 -0.8272 -3.3923 0.5977 -9.2692e-031 -1.90833e-014 -2.78299e-015 -0.5649 -2.3158 0.4082 -7.95139e-016 -1.59028e-014 -2.78299e-015 0.9159 -9.2044 0.2193 7.95139e-016 -2.22639e-014 -4.77083e-015 0.0117 -4.1944 -0.0248 -0.0128408 0.00232381 7.59967e-005 0.0071 -2.3249 -0.0142 7.95139e-016 -3.18055e-015 1.59028e-015 0.6113 -8.7231 -2.0637 7.95139e-016 -2.22639e-014 -4.77083e-015 -0.1927 -3.8059 -0.2383 -0.016033 0.00299242 0.000851967 -0.1091 -2.1688 -0.1362 2.38542e-015 -3.18055e-015 3.77691e-015 -0.6151 -8.0947 -3.5641 7.95139e-016 -2.22639e-014 -4.77083e-015 -0.4882 -2.341 -0.6462 -0.0126022 0.00311915 0.00282052 -0.3575 -1.7167 -0.4742 -7.95139e-016 0 3.97569e-016 -1.42 -1.8761 1.4223 7.95139e-016 -2.22639e-014 -4.77083e-015 -1.1471 -3.4929 2.6334 -9.2692e-031 -1.90833e-014 -2.78299e-015 -0.823 -2.3 1.6571 -7.95139e-016 -1.59028e-014 -2.78299e-015 -2.2603 21.606 7.4023 18.4904 -0.411543 8.23403 -13.5187 -1.1334 -5.0155 -54.0068 10.2106 40.7493 0.0994 -28.0499 -0.2431 -145.703 -28.8829 -170.916 -0.0679 -23.3996 -0.1402 46.6172 8.91883 -10.6236 -0.7932 -9.0691 2.5189 -1.42352e-007 -8.49512e-007 -8.15426e-007 0.8272 -3.3923 0.5977 4.37326e-015 1.59028e-015 3.18055e-015 0.565 -2.3158 0.4082 1.42352e-007 8.49512e-007 8.15426e-007 -0.916 -9.2044 0.2193 -1.42352e-007 -8.49512e-007 -8.15426e-007 -0.0117 -4.1944 -0.0248 0.0129783 0.00232074 -8.51448e-005 -0.0071 -2.3249 -0.0142 -2.32383e-006 2.56267e-006 -5.07269e-007 -0.6113 -8.7231 -2.0637 -1.42352e-007 -8.49512e-007 -8.15426e-007 0.1927 -3.8059 -0.2383 0.0163458 0.00304223 -0.000876776 0.1091 -2.1688 -0.1362 5.68996e-007 -9.31627e-007 3.26175e-006 0.6151 -8.0947 -3.564 -1.42352e-007 -8.49512e-007 -8.15426e-007 0.4882 -2.341 -0.6462 0.0145038 0.00365898 -0.00324339 0.3574 -1.7166 -0.4742 1.42247e-007 8.55691e-007 8.15447e-007 1.4199 -1.8761 1.4221 -1.42352e-007 -8.49512e-007 -8.15426e-007 1.1472 -3.4929 2.6336 4.37326e-015 1.59028e-015 3.18055e-015 0.8229 -2.3 1.6571 1.42352e-007 8.49512e-007 8.15426e-007 -9.412 3.9771 -0.7758 46.404 -72.139 28.5424 -0.7531 -40.938 0 -2.05755 36.8697 42.3253 1.42109e-014 -40.1986 1.77636e-015 -26.4272 -2.44003 -8.40876 7.10543e-015 -4.4182 9.23901 -2.04527e-006 1.10781e-006 -4.63495e-006 9.4119 3.9773 -0.7758 39.2677 -78.0071 69.8475 0.7532 -40.9383 0 2.04737 37.7952 -42.3211 0 -40.1986 0 24.8652 -2.91491 7.61247 1.42109e-014 -4.4182 9.239 -2.91987e-006 -1.0429e-006 -3.35008e-007 
38.2632 42.88 18.6629 -179.999 58.9984 12.9916 7.10543e-015 8.7983 -4.7612 -0.25225 6.6137 -2.86491 0 8.0291 0.4195 -0.170517 13.2317 -5.7585 7.10543e-015 9.9351 -2.2114 -0.170515 13.2317 -5.75852 0 22.3885 -0.4656 -0.815904 13.9956 0.197359 -0.0001 12.643 3.4389 -0.115698 -0.452719 1.73971 2.2603 21.606 7.4023 -7.81631 4.89709 -6.22101 13.5163 -1.1332 -5.0146 38.6587 12.0551 -34.9789 -0.0995 -28.05 -0.2431 -1.46474 -17.8277 -36.4584 0.0679 -23.3996 -0.1402 2.42165 3.50368 1.42177 0.7932 -9.069 2.5189 1.01086e-007 8.5828e-006 5.97986e-007 -0.8272 -3.3923 0.5977 -1.59028e-015 -3.18055e-015 1.39149e-015 -0.5649 -2.3158 0.4082 1.89816e-006 -2.20858e-006 -7.60531e-006 0.9159 -9.2044 0.2193 1.01086e-007 8.5828e-006 5.97986e-007 0.0117 -4.1944 -0.0248 -0.0128036 0.00232933 7.63003e-005 0.0071 -2.3249 -0.0142 -1.26941e-005 7.49533e-006 7.75688e-006 0.6113 -8.7231 -2.0637 1.01086e-007 8.5828e-006 5.97986e-007 -0.1927 -3.8059 -0.2383 -0.0160514 0.00299623 0.00085016 -0.1091 -2.1688 -0.1362 2.00226e-007 8.75036e-006 1.19608e-006 -0.6151 -8.0947 -3.5641 1.01086e-007 8.5828e-006 5.97986e-007 -0.4882 -2.341 -0.6462 -0.0125706 0.00312716 0.00281696 -0.3575 -1.7167 -0.4742 5.24818e-006 -4.35146e-006 -5.98963e-006 -1.42 -1.8761 1.4223 1.01086e-007 8.5828e-006 5.97986e-007 -1.1471 -3.4929 2.6334 -1.59028e-015 -3.18055e-015 1.39149e-015 -0.823 -2.3 1.6571 1.89816e-006 -2.20858e-006 -7.60531e-006 -2.2603 21.606 7.4023 18.4904 -0.411555 8.23404 -13.5187 -1.1334 -5.0155 -54.0067 10.2106 40.7493 0.0994 -28.0499 -0.2431 -145.632 -29.2841 -170.59 -0.0679 -23.3996 -0.1402 46.6172 8.91888 -10.6236 -0.7932 -9.0691 2.5189 2.07927e-006 -9.96449e-007 -9.84573e-007 0.8272 -3.3923 0.5977 7.30157e-006 9.41586e-007 -2.25599e-006 0.565 -2.3158 0.4082 1.32424e-007 8.50037e-007 8.20715e-007 -0.916 -9.2044 0.2193 2.07927e-006 -9.96449e-007 -9.84573e-007 -0.0117 -4.1944 -0.0248 0.0129591 0.00231746 -8.86489e-005 -0.0071 -2.3249 -0.0142 -1.6808e-006 1.86791e-006 3.44664e-006 -0.6113 -8.7231 -2.0637 2.07927e-006 -9.96449e-007 -9.84573e-007 0.1927 -3.8059 -0.2383 0.0163378 0.00303145 -0.000877964 0.1091 -2.1688 -0.1362 -2.64651e-007 3.54767e-006 -1.64145e-006 0.6151 -8.0947 -3.564 2.07927e-006 -9.96449e-007 -9.84573e-007 0.4882 -2.341 -0.6462 0.0146002 0.00367956 -0.00326665 0.3574 -1.7166 -0.4742 2.64644e-007 8.65761e-007 1.64147e-006 1.4199 -1.8761 1.4221 2.07927e-006 -9.96449e-007 -9.84573e-007 1.1472 -3.4929 2.6336 7.30157e-006 9.41586e-007 -2.25599e-006 0.8229 -2.3 1.6571 1.32424e-007 8.50037e-007 8.20715e-007 -9.412 3.9771 -0.7758 47.4341 -72.4462 29.6222 -0.7531 -40.938 0 -2.05906 36.8855 42.3249 0 -40.1986 -1.77636e-015 -26.4343 -2.44647 -8.41135 0 -4.4182 9.239 -1.78906e-015 -7.95139e-016 -0 9.4119 3.9773 -0.7758 40.8268 -78.3935 71.44 0.7532 -40.9383 -7.10543e-015 2.04758 37.7978 -42.3213 -3.55271e-015 -40.1986 0 24.8649 -2.91172 7.61179 0 -4.4182 9.239 -1.63545e-006 -3.31427e-007 7.18294e-007 
